<svg xmlns:dc="http://purl.org/dc/elements/1.1/" xmlns:cc="http://creativecommons.org/ns#" xmlns:rdf="http://www.w3.org/1999/02/22-rdf-syntax-ns#" xmlns:svg="http://www.w3.org/2000/svg" xmlns="http://www.w3.org/2000/svg" xmlns:xlink="http://www.w3.org/1999/xlink" id="svg488333" viewBox="0 0 1024 768" height="768px" width="1024px" version="1.1">
  <metadata id="metadata488339">
    <rdf:rdf>
      <cc:work rdf:about="">
        <dc:format>image/svg+xml</dc:format>
        <dc:type rdf:resource="http://purl.org/dc/dcmitype/StillImage"></dc:type>
      </cc:work>
    </rdf:rdf>
  </metadata>
  <defs id="defs488337"></defs>
  <linearGradient spreadMethod="pad" y2="30%" x2="-10%" y1="120%" x1="30%" id="3d_gradient2-logo-811fda51-2e7c-4b72-86c5-15f266c608ff">
    <stop id="stop488314" stop-opacity="1" stop-color="#ffffff" offset="0%"></stop>
    <stop id="stop488316" stop-opacity="1" stop-color="#000000" offset="100%"></stop>
  </linearGradient>
  <linearGradient gradientTransform="rotate(-30)" spreadMethod="pad" y2="30%" x2="-10%" y1="120%" x1="30%" id="3d_gradient3-logo-811fda51-2e7c-4b72-86c5-15f266c608ff">
    <stop id="stop488319" stop-opacity="1" stop-color="#ffffff" offset="0%"></stop>
    <stop id="stop488321" stop-opacity="1" stop-color="#cccccc" offset="50%"></stop>
    <stop id="stop488323" stop-opacity="1" stop-color="#000000" offset="100%"></stop>
  </linearGradient>
  <g id="logo-group">
    <image xlink:href="" id="container" x="272" y="144" width="480" height="480" transform="translate(0 0)" style="display: none;"></image>
    <g id="logo-center" transform="translate(1.1368683772161603e-13 0)">
      <image xlink:href="" id="icon_container" x="0" y="0" style="display: none;"></image>
      <g id="slogan" style="font-style:normal;font-weight:100;font-size:32px;line-height:1;font-family:'Exo 2';font-variant-ligatures:none;text-align:center;text-anchor:middle" transform="translate(0 0)">
        <path id="path488341" style="font-style:normal;font-weight:100;font-size:32px;line-height:1;font-family:'Exo 2';font-variant-ligatures:none;text-align:center;text-anchor:middle" d="m 131.2535,-7.776 h -10.176 L 118.3575,0 h -1.376 l 7.712,-21.664 q 0.16,-0.416 0.576,-0.416 h 1.792 q 0.416,0 0.576,0.416 L 135.3495,0 h -1.376 z m -0.416,-1.152 -3.584,-10.272 -0.64,-1.792 h -0.896 l -0.64,1.792 -3.584,10.272 z" stroke-width="0" stroke-linejoin="miter" stroke-miterlimit="2" fill="#55fd8b" stroke="#55fd8b" transform="translate(-2.2737367544323206e-13 387.12962500000003) translate(216.43999624999975 55.903999999999996) scale(0.75) translate(-116.9815 22.08)"></path>
        <path id="path488343" style="font-style:normal;font-weight:100;font-size:32px;line-height:1;font-family:'Exo 2';font-variant-ligatures:none;text-align:center;text-anchor:middle" d="m 139.811,-15.424 0.096,2.72 q 4,-3.104 7.36,-3.104 4.16,0 4.16,4.224 V 0 h -1.28 v -11.328 q 0,-1.728 -0.768,-2.528 -0.768,-0.8 -2.4,-0.8 -1.568,0 -3.104,0.704 -1.504,0.672 -3.84,2.24 V 0 h -1.248 v -15.424 z" stroke-width="0" stroke-linejoin="miter" stroke-miterlimit="2" fill="#55fd8b" stroke="#55fd8b" transform="translate(-2.2737367544323206e-13 387.12962500000003) translate(232.79412124999976 60.608) scale(0.75) translate(-138.787 15.808)"></path>
        <path id="path488345" style="font-style:normal;font-weight:100;font-size:32px;line-height:1;font-family:'Exo 2';font-variant-ligatures:none;text-align:center;text-anchor:middle" d="m 173.148,-7.072 h -8.224 q 0.128,3.52 1.472,4.928 1.344,1.376 4.352,1.376 2.656,0 5.28,-0.384 l 0.16,0.896 q -1.92,0.64 -5.6,0.64 -3.744,0 -5.376,-1.856 -1.632,-1.888 -1.632,-6.304 0,-4.416 1.536,-6.208 1.568,-1.824 5.216,-1.824 6.112,0 6.208,4.544 0.064,2.112 -0.768,3.168 -0.8,1.024 -2.624,1.024 z m -8.224,-1.056 h 8.032 q 2.368,0 2.272,-3.072 -0.032,-1.792 -1.216,-2.624 -1.152,-0.832 -3.616,-0.832 -3.008,0 -4.224,1.44 -1.216,1.44 -1.248,5.088 z" stroke-width="0" stroke-linejoin="miter" stroke-miterlimit="2" fill="#55fd8b" stroke="#55fd8b" transform="translate(-2.2737367544323206e-13 387.12962500000003) translate(251.38887124999974 60.608) scale(0.75) translate(-163.58 15.808)"></path>
        <path id="path488347" style="font-style:normal;font-weight:100;font-size:32px;line-height:1;font-family:'Exo 2';font-variant-ligatures:none;text-align:center;text-anchor:middle" d="m 182.3735,-15.424 0.096,2.72 q 4,-3.104 7.36,-3.104 4.16,0 4.16,4.224 V 0 h -1.28 v -11.328 q 0,-1.728 -0.768,-2.528 -0.768,-0.8 -2.4,-0.8 -1.568,0 -3.104,0.704 -1.504,0.672 -3.84,2.24 V 0 h -1.248 v -15.424 z" stroke-width="0" stroke-linejoin="miter" stroke-miterlimit="2" fill="#55fd8b" stroke="#55fd8b" transform="translate(-2.2737367544323206e-13 387.12962500000003) translate(264.7159962499997 60.608) scale(0.75) translate(-181.3495 15.808)"></path>
        <path id="path488349" style="font-style:normal;font-weight:100;font-size:32px;line-height:1;font-family:'Exo 2';font-variant-ligatures:none;text-align:center;text-anchor:middle" d="m 212.302,-15.424 -6.144,15.072 Q 205.966,0 205.582,0 h -1.28 q -0.384,0 -0.544,-0.352 l -6.144,-15.072 h 1.376 l 4.608,11.552 q 0.192,0.448 0.576,1.408 0.384,0.96 0.576,1.44 h 0.416 l 1.184,-2.88 4.576,-11.52 z" stroke-width="0" stroke-linejoin="miter" stroke-miterlimit="2" fill="#55fd8b" stroke="#55fd8b" transform="translate(-2.2737367544323206e-13 387.12962500000003) translate(276.9143712499997 60.896) scale(0.75) translate(-197.614 15.424)"></path>
        <path id="path488351" style="font-style:normal;font-weight:100;font-size:32px;line-height:1;font-family:'Exo 2';font-variant-ligatures:none;text-align:center;text-anchor:middle" d="m 216.5475,-21.856 h 0.576 q 0.48,0 0.48,0.512 v 1.92 q 0,0.512 -0.48,0.512 h -0.576 q -0.512,0 -0.512,-0.512 v -1.92 q 0,-0.512 0.512,-0.512 z M 217.4435,0 h -1.248 v -15.424 h 1.248 z" stroke-width="0" stroke-linejoin="miter" stroke-miterlimit="2" fill="#55fd8b" stroke="#55fd8b" transform="translate(-2.2737367544323206e-13 387.12962500000003) translate(290.73049624999976 56.071999999999996) scale(0.75) translate(-216.0355 21.856)"></path>
        <path id="path488353" style="font-style:normal;font-weight:100;font-size:32px;line-height:1;font-family:'Exo 2';font-variant-ligatures:none;text-align:center;text-anchor:middle" d="m 232.1495,-15.808 -0.192,1.216 h -0.64 q -1.472,0 -2.944,0.672 -1.44,0.64 -3.776,2.144 V 0 h -1.248 v -15.424 h 0.96 l 0.16,2.72 q 3.904,-3.104 7.04,-3.104 z" stroke-width="0" stroke-linejoin="miter" stroke-miterlimit="2" fill="#55fd8b" stroke="#55fd8b" transform="translate(-2.2737367544323206e-13 387.12962500000003) translate(296.21599624999976 60.608) scale(0.75) translate(-223.3495 15.808)"></path>
        <path id="path488355" style="font-style:normal;font-weight:100;font-size:32px;line-height:1;font-family:'Exo 2';font-variant-ligatures:none;text-align:center;text-anchor:middle" d="m 235.8355,-13.984 q 1.568,-1.824 5.344,-1.824 3.776,0 5.312,1.824 1.568,1.824 1.568,6.272 0,4.448 -1.536,6.272 -1.536,1.824 -5.344,1.824 -3.808,0 -5.344,-1.824 -1.536,-1.824 -1.536,-6.272 0,-4.448 1.536,-6.272 z m 9.664,0.832 q -1.216,-1.504 -4.32,-1.504 -3.104,0 -4.32,1.504 -1.216,1.504 -1.216,5.44 0,3.936 1.216,5.472 1.216,1.504 4.32,1.504 3.104,0 4.32,-1.504 1.248,-1.536 1.248,-5.472 0,-3.936 -1.248,-5.44 z" stroke-width="0" stroke-linejoin="miter" stroke-miterlimit="2" fill="#55fd8b" stroke="#55fd8b" transform="translate(-2.2737367544323206e-13 387.12962500000003) translate(304.42849624999974 60.608) scale(0.75) translate(-234.2995 15.808)"></path>
        <path id="path488357" style="font-style:normal;font-weight:100;font-size:32px;line-height:1;font-family:'Exo 2';font-variant-ligatures:none;text-align:center;text-anchor:middle" d="m 254.1235,-15.424 0.096,2.72 q 4,-3.104 7.36,-3.104 4.16,0 4.16,4.224 V 0 h -1.28 v -11.328 q 0,-1.728 -0.768,-2.528 -0.768,-0.8 -2.4,-0.8 -1.568,0 -3.104,0.704 -1.504,0.672 -3.84,2.24 V 0 h -1.248 v -15.424 z" stroke-width="0" stroke-linejoin="miter" stroke-miterlimit="2" fill="#55fd8b" stroke="#55fd8b" transform="translate(-2.2737367544323206e-13 387.12962500000003) translate(318.52849624999976 60.608) scale(0.75) translate(-253.0995 15.808)"></path>
        <path id="path488359" style="font-style:normal;font-weight:100;font-size:32px;line-height:1;font-family:'Exo 2';font-variant-ligatures:none;text-align:center;text-anchor:middle" d="m 272.404,-15.424 0.128,2.72 q 3.552,-3.104 6.72,-3.104 3.36,0 3.904,3.072 3.552,-3.072 6.688,-3.072 4,0 4,4.224 V 0 h -1.248 v -11.328 q -0.032,-3.328 -3.136,-3.328 -1.408,0 -2.752,0.672 -1.344,0.672 -3.456,2.272 V -11.584 0 h -1.248 v -11.328 q 0,-3.328 -3.136,-3.328 -1.376,0 -2.752,0.672 -1.344,0.672 -3.456,2.272 V 0 h -1.248 v -15.424 z" stroke-width="0" stroke-linejoin="miter" stroke-miterlimit="2" fill="#55fd8b" stroke="#55fd8b" transform="translate(-2.2737367544323206e-13 387.12962500000003) translate(332.26287124999976 60.608) scale(0.75) translate(-271.412 15.808)"></path>
        <path id="path488361" style="font-style:normal;font-weight:100;font-size:32px;line-height:1;font-family:'Exo 2';font-variant-ligatures:none;text-align:center;text-anchor:middle" d="m 308.273,-7.072 h -8.224 q 0.128,3.52 1.472,4.928 1.344,1.376 4.352,1.376 2.656,0 5.28,-0.384 l 0.16,0.896 q -1.92,0.64 -5.6,0.64 -3.744,0 -5.376,-1.856 -1.632,-1.888 -1.632,-6.304 0,-4.416 1.536,-6.208 1.568,-1.824 5.216,-1.824 6.112,0 6.208,4.544 0.064,2.112 -0.768,3.168 -0.8,1.024 -2.624,1.024 z m -8.224,-1.056 h 8.032 q 2.368,0 2.272,-3.072 -0.032,-1.792 -1.216,-2.624 -1.152,-0.832 -3.616,-0.832 -3.008,0 -4.224,1.44 -1.216,1.44 -1.248,5.088 z" stroke-width="0" stroke-linejoin="miter" stroke-miterlimit="2" fill="#55fd8b" stroke="#55fd8b" transform="translate(-2.2737367544323206e-13 387.12962500000003) translate(352.73262124999974 60.608) scale(0.75) translate(-298.705 15.808)"></path>
        <path id="path488363" style="font-style:normal;font-weight:100;font-size:32px;line-height:1;font-family:'Exo 2';font-variant-ligatures:none;text-align:center;text-anchor:middle" d="m 317.4985,-15.424 0.096,2.72 q 4,-3.104 7.36,-3.104 4.16,0 4.16,4.224 V 0 h -1.28 v -11.328 q 0,-1.728 -0.768,-2.528 -0.768,-0.8 -2.4,-0.8 -1.568,0 -3.104,0.704 -1.504,0.672 -3.84,2.24 V 0 h -1.248 v -15.424 z" stroke-width="0" stroke-linejoin="miter" stroke-miterlimit="2" fill="#55fd8b" stroke="#55fd8b" transform="translate(-2.2737367544323206e-13 387.12962500000003) translate(366.05974624999976 60.608) scale(0.75) translate(-316.4745 15.808)"></path>
        <path id="path488365" style="font-style:normal;font-weight:100;font-size:32px;line-height:1;font-family:'Exo 2';font-variant-ligatures:none;text-align:center;text-anchor:middle" d="m 336.963,-14.336 v 10.944 q 0,2.432 2.464,2.432 h 2.688 l 0.16,0.928 q -1.44,0.256 -2.944,0.256 -3.648,0 -3.648,-3.488 v -11.072 h -2.784 v -0.928 l 2.784,-0.128 v -4.8 h 1.28 v 4.768 h 5.504 v 1.088 z" stroke-width="0" stroke-linejoin="miter" stroke-miterlimit="2" fill="#55fd8b" stroke="#55fd8b" transform="translate(-2.2737367544323206e-13 387.12962500000003) translate(378.3781212499998 57.32) scale(0.75) translate(-332.899 20.192)"></path>
        <path id="path488367" style="font-style:normal;font-weight:100;font-size:32px;line-height:1;font-family:'Exo 2';font-variant-ligatures:none;text-align:center;text-anchor:middle" d="m 374.931,-15.424 -5.12,15.008 Q 369.651,0 369.235,0 h -1.248 q -0.448,0 -0.608,-0.448 l -3.616,-11.68 q -0.448,-1.536 -0.672,-2.336 h -0.352 l -0.704,2.336 -3.584,11.68 Q 358.291,0 357.843,0 h -1.248 q -0.416,0 -0.576,-0.416 l -5.12,-15.008 h 1.344 l 4.096,12.32 q 0.16,0.416 0.384,1.216 0.256,0.8 0.288,0.928 h 0.416 l 0.672,-2.176 3.648,-11.84 q 0.096,-0.448 0.576,-0.448 h 1.184 q 0.448,0 0.576,0.448 l 3.68,11.84 0.64,2.176 h 0.416 q 0.128,-0.352 0.32,-1.088 0.224,-0.736 0.352,-1.088 l 4.096,-12.288 z" stroke-width="0" stroke-linejoin="miter" stroke-miterlimit="2" fill="#55fd8b" stroke="#55fd8b" transform="translate(-2.2737367544323206e-13 387.12962500000003) translate(391.8781212499998 60.896) scale(0.75) translate(-350.899 15.424)"></path>
        <path id="path488369" style="font-style:normal;font-weight:100;font-size:32px;line-height:1;font-family:'Exo 2';font-variant-ligatures:none;text-align:center;text-anchor:middle" d="m 379.2975,-21.856 h 0.576 q 0.48,0 0.48,0.512 v 1.92 q 0,0.512 -0.48,0.512 h -0.576 q -0.512,0 -0.512,-0.512 v -1.92 q 0,-0.512 0.512,-0.512 z M 380.1935,0 h -1.248 v -15.424 h 1.248 z" stroke-width="0" stroke-linejoin="miter" stroke-miterlimit="2" fill="#55fd8b" stroke="#55fd8b" transform="translate(-2.2737367544323206e-13 387.12962500000003) translate(412.7929962499999 56.071999999999996) scale(0.75) translate(-378.7855 21.856)"></path>
        <path id="path488371" style="font-style:normal;font-weight:100;font-size:32px;line-height:1;font-family:'Exo 2';font-variant-ligatures:none;text-align:center;text-anchor:middle" d="m 388.2755,-14.336 v 10.944 q 0,2.432 2.464,2.432 h 2.688 l 0.16,0.928 q -1.44,0.256 -2.944,0.256 -3.648,0 -3.648,-3.488 v -11.072 h -2.784 v -0.928 l 2.784,-0.128 v -4.8 h 1.28 v 4.768 h 5.504 v 1.088 z" stroke-width="0" stroke-linejoin="miter" stroke-miterlimit="2" fill="#55fd8b" stroke="#55fd8b" transform="translate(-2.2737367544323206e-13 387.12962500000003) translate(416.8624962499999 57.32) scale(0.75) translate(-384.2115 20.192)"></path>
        <path id="path488373" style="font-style:normal;font-weight:100;font-size:32px;line-height:1;font-family:'Exo 2';font-variant-ligatures:none;text-align:center;text-anchor:middle" d="m 398.7545,-22.4 v 6.688 q 0,1.952 -0.16,3.008 4.128,-3.104 7.328,-3.104 4.16,0 4.16,4.224 V 0 h -1.28 v -11.328 q 0,-1.728 -0.768,-2.528 -0.768,-0.8 -2.4,-0.8 -1.568,0 -3.104,0.704 -1.536,0.672 -3.808,2.24 V 0 h -1.28 v -22.4 z" stroke-width="0" stroke-linejoin="miter" stroke-miterlimit="2" fill="#55fd8b" stroke="#55fd8b" transform="translate(-2.2737367544323206e-13 387.12962500000003) translate(426.7857462499999 55.664) scale(0.75) translate(-397.4425 22.4)"></path>
        <path id="path488375" style="font-style:normal;font-weight:100;font-size:32px;line-height:1;font-family:'Exo 2';font-variant-ligatures:none;text-align:center;text-anchor:middle" d="m 416.523,-13.984 q 1.568,-1.824 5.344,-1.824 3.776,0 5.312,1.824 1.568,1.824 1.568,6.272 0,4.448 -1.536,6.272 -1.536,1.824 -5.344,1.824 -3.808,0 -5.344,-1.824 -1.536,-1.824 -1.536,-6.272 0,-4.448 1.536,-6.272 z m 9.664,0.832 q -1.216,-1.504 -4.32,-1.504 -3.104,0 -4.32,1.504 -1.216,1.504 -1.216,5.44 0,3.936 1.216,5.472 1.216,1.504 4.32,1.504 3.104,0 4.32,-1.504 1.248,-1.536 1.248,-5.472 0,-3.936 -1.248,-5.44 z" stroke-width="0" stroke-linejoin="miter" stroke-miterlimit="2" fill="#55fd8b" stroke="#55fd8b" transform="translate(-2.2737367544323206e-13 387.12962500000003) translate(439.9441212499999 60.608) scale(0.75) translate(-414.987 15.808)"></path>
        <path id="path488377" style="font-style:normal;font-weight:100;font-size:32px;line-height:1;font-family:'Exo 2';font-variant-ligatures:none;text-align:center;text-anchor:middle" d="M 445.979,-15.424 V 0 h -0.992 l -0.128,-2.656 q -3.712,3.04 -7.04,3.04 -4.16,0 -4.16,-4.224 v -11.584 h 1.28 v 11.328 q -0.032,1.728 0.768,2.528 0.8,0.8 2.464,0.8 1.472,0 2.88,-0.672 1.44,-0.672 3.648,-2.208 v -11.776 z" stroke-width="0" stroke-linejoin="miter" stroke-miterlimit="2" fill="#55fd8b" stroke="#55fd8b" transform="translate(-2.2737367544323206e-13 387.12962500000003) translate(453.9481212499999 60.896) scale(0.75) translate(-433.659 15.424)"></path>
        <path id="path488379" style="font-style:normal;font-weight:100;font-size:32px;line-height:1;font-family:'Exo 2';font-variant-ligatures:none;text-align:center;text-anchor:middle" d="m 453.963,-14.336 v 10.944 q 0,2.432 2.464,2.432 h 2.688 l 0.16,0.928 q -1.44,0.256 -2.944,0.256 -3.648,0 -3.648,-3.488 v -11.072 h -2.784 v -0.928 l 2.784,-0.128 v -4.8 h 1.28 v 4.768 h 5.504 v 1.088 z" stroke-width="0" stroke-linejoin="miter" stroke-miterlimit="2" fill="#55fd8b" stroke="#55fd8b" transform="translate(-2.2737367544323206e-13 387.12962500000003) translate(466.1281212499999 57.32) scale(0.75) translate(-449.899 20.192)"></path>
        <path id="path488381" style="font-style:normal;font-weight:100;font-size:32px;line-height:1;font-family:'Exo 2';font-variant-ligatures:none;text-align:center;text-anchor:middle" d="m 481.4185,-1.12 0.192,0.896 q -2.336,0.608 -4.832,0.608 -3.904,0 -5.536,-1.824 -1.6,-1.824 -1.6,-6.272 0,-4.448 1.6,-6.272 1.632,-1.824 5.504,-1.824 2.784,0 4.512,0.608 l -0.224,0.864 q -1.696,-0.32 -4.064,-0.32 -3.328,0 -4.672,1.504 -1.312,1.472 -1.312,5.44 0,3.968 1.312,5.472 1.344,1.472 4.672,1.472 2.688,0 4.448,-0.352 z" stroke-width="0" stroke-linejoin="miter" stroke-miterlimit="2" fill="#55fd8b" stroke="#55fd8b" transform="translate(-2.2737367544323206e-13 387.12962500000003) translate(480.93574624999985 60.608) scale(0.75) translate(-469.6425 15.808)"></path>
        <path id="path488383" style="font-style:normal;font-weight:100;font-size:32px;line-height:1;font-family:'Exo 2';font-variant-ligatures:none;text-align:center;text-anchor:middle" d="m 494.273,-7.072 h -8.224 q 0.128,3.52 1.472,4.928 1.344,1.376 4.352,1.376 2.656,0 5.28,-0.384 l 0.16,0.896 q -1.92,0.64 -5.6,0.64 -3.744,0 -5.376,-1.856 -1.632,-1.888 -1.632,-6.304 0,-4.416 1.536,-6.208 1.568,-1.824 5.216,-1.824 6.112,0 6.208,4.544 0.064,2.112 -0.768,3.168 -0.8,1.024 -2.624,1.024 z m -8.224,-1.056 h 8.032 q 2.368,0 2.272,-3.072 -0.032,-1.792 -1.216,-2.624 -1.152,-0.832 -3.616,-0.832 -3.008,0 -4.224,1.44 -1.216,1.44 -1.248,5.088 z" stroke-width="0" stroke-linejoin="miter" stroke-miterlimit="2" fill="#55fd8b" stroke="#55fd8b" transform="translate(-2.2737367544323206e-13 387.12962500000003) translate(492.23262124999985 60.608) scale(0.75) translate(-484.705 15.808)"></path>
        <path id="path488385" style="font-style:normal;font-weight:100;font-size:32px;line-height:1;font-family:'Exo 2';font-variant-ligatures:none;text-align:center;text-anchor:middle" d="m 503.4985,-15.424 0.096,2.72 q 4,-3.104 7.36,-3.104 4.16,0 4.16,4.224 V 0 h -1.28 v -11.328 q 0,-1.728 -0.768,-2.528 -0.768,-0.8 -2.4,-0.8 -1.568,0 -3.104,0.704 -1.504,0.672 -3.84,2.24 V 0 h -1.248 v -15.424 z" stroke-width="0" stroke-linejoin="miter" stroke-miterlimit="2" fill="#55fd8b" stroke="#55fd8b" transform="translate(-2.2737367544323206e-13 387.12962500000003) translate(505.5597462499999 60.608) scale(0.75) translate(-502.4745 15.808)"></path>
        <path id="path488387" style="font-style:normal;font-weight:100;font-size:32px;line-height:1;font-family:'Exo 2';font-variant-ligatures:none;text-align:center;text-anchor:middle" d="m 528.147,-6.88 -5.024,-0.736 q -1.728,-0.256 -2.56,-1.184 -0.8,-0.96 -0.8,-2.88 0,-2.688 1.28,-3.424 1.28,-0.768 4.48,-0.704 3.456,0.064 6.112,0.416 l -0.128,0.928 q -3.68,-0.192 -5.856,-0.224 -2.752,-0.064 -3.712,0.448 -0.928,0.48 -0.928,2.56 0,1.504 0.608,2.144 0.608,0.64 1.888,0.832 l 5.024,0.736 q 1.76,0.288 2.624,1.248 0.896,0.928 0.896,2.752 0,2.72 -1.408,3.52 -1.408,0.8 -4.8,0.8 -3.072,0 -5.728,-0.384 l 0.128,-0.928 q 2.752,0.224 5.472,0.192 2.976,-0.032 4.032,-0.608 1.056,-0.608 1.056,-2.592 0,-1.408 -0.704,-2.048 -0.672,-0.64 -1.952,-0.864 z" stroke-width="0" stroke-linejoin="miter" stroke-miterlimit="2" fill="#55fd8b" stroke="#55fd8b" transform="translate(-2.2737367544323206e-13 387.12962500000003) translate(518.52612125 60.60430775) scale(0.75) translate(-519.763 15.812923)"></path>
        <path id="path488389" style="font-style:normal;font-weight:100;font-size:32px;line-height:1;font-family:'Exo 2';font-variant-ligatures:none;text-align:center;text-anchor:middle" d="m 537.5855,-13.984 q 1.568,-1.824 5.344,-1.824 3.776,0 5.312,1.824 1.568,1.824 1.568,6.272 0,4.448 -1.536,6.272 -1.536,1.824 -5.344,1.824 -3.808,0 -5.344,-1.824 -1.536,-1.824 -1.536,-6.272 0,-4.448 1.536,-6.272 z m 9.664,0.832 q -1.216,-1.504 -4.32,-1.504 -3.104,0 -4.32,1.504 -1.216,1.504 -1.216,5.44 0,3.936 1.216,5.472 1.216,1.504 4.32,1.504 3.104,0 4.32,-1.504 1.248,-1.536 1.248,-5.472 0,-3.936 -1.248,-5.44 z" stroke-width="0" stroke-linejoin="miter" stroke-miterlimit="2" fill="#55fd8b" stroke="#55fd8b" transform="translate(-2.2737367544323206e-13 387.12962500000003) translate(530.7409962499999 60.608) scale(0.75) translate(-536.0495 15.808)"></path>
        <path id="path488391" style="font-style:normal;font-weight:100;font-size:32px;line-height:1;font-family:'Exo 2';font-variant-ligatures:none;text-align:center;text-anchor:middle" d="m 563.6495,-15.808 -0.192,1.216 h -0.64 q -1.472,0 -2.944,0.672 -1.44,0.64 -3.776,2.144 V 0 h -1.248 v -15.424 h 0.96 l 0.16,2.72 q 3.904,-3.104 7.04,-3.104 z" stroke-width="0" stroke-linejoin="miter" stroke-miterlimit="2" fill="#55fd8b" stroke="#55fd8b" transform="translate(-2.2737367544323206e-13 387.12962500000003) translate(544.84099625 60.608) scale(0.75) translate(-554.8495 15.808)"></path>
        <path id="path488393" style="font-style:normal;font-weight:100;font-size:32px;line-height:1;font-family:'Exo 2';font-variant-ligatures:none;text-align:center;text-anchor:middle" d="m 574.647,-6.88 -5.024,-0.736 q -1.728,-0.256 -2.56,-1.184 -0.8,-0.96 -0.8,-2.88 0,-2.688 1.28,-3.424 1.28,-0.768 4.48,-0.704 3.456,0.064 6.112,0.416 l -0.128,0.928 q -3.68,-0.192 -5.856,-0.224 -2.752,-0.064 -3.712,0.448 -0.928,0.48 -0.928,2.56 0,1.504 0.608,2.144 0.608,0.64 1.888,0.832 l 5.024,0.736 q 1.76,0.288 2.624,1.248 0.896,0.928 0.896,2.752 0,2.72 -1.408,3.52 -1.408,0.8 -4.8,0.8 -3.072,0 -5.728,-0.384 l 0.128,-0.928 q 2.752,0.224 5.472,0.192 2.976,-0.032 4.032,-0.608 1.056,-0.608 1.056,-2.592 0,-1.408 -0.704,-2.048 -0.672,-0.64 -1.952,-0.864 z" stroke-width="0" stroke-linejoin="miter" stroke-miterlimit="2" fill="#55fd8b" stroke="#55fd8b" transform="translate(-2.2737367544323206e-13 387.12962500000003) translate(553.4011212500001 60.60430775) scale(0.75) translate(-566.263 15.812923)"></path>
        <path id="path488395" style="font-style:normal;font-weight:100;font-size:32px;line-height:1;font-family:'Exo 2';font-variant-ligatures:none;text-align:center;text-anchor:middle" d="m 584.6295,-22.4 v 6.688 q 0,1.952 -0.16,3.008 4.128,-3.104 7.328,-3.104 4.16,0 4.16,4.224 V 0 h -1.28 v -11.328 q 0,-1.728 -0.768,-2.528 -0.768,-0.8 -2.4,-0.8 -1.568,0 -3.104,0.704 -1.536,0.672 -3.808,2.24 V 0 h -1.28 v -22.4 z" stroke-width="0" stroke-linejoin="miter" stroke-miterlimit="2" fill="#55fd8b" stroke="#55fd8b" transform="translate(-2.2737367544323206e-13 387.12962500000003) translate(566.1919962500001 55.664) scale(0.75) translate(-583.3175 22.4)"></path>
        <path id="path488397" style="font-style:normal;font-weight:100;font-size:32px;line-height:1;font-family:'Exo 2';font-variant-ligatures:none;text-align:center;text-anchor:middle" d="m 602.11,-21.856 h 0.576 q 0.48,0 0.48,0.512 v 1.92 q 0,0.512 -0.48,0.512 h -0.576 q -0.512,0 -0.512,-0.512 v -1.92 q 0,-0.512 0.512,-0.512 z M 603.006,0 h -1.248 v -15.424 h 1.248 z" stroke-width="0" stroke-linejoin="miter" stroke-miterlimit="2" fill="#55fd8b" stroke="#55fd8b" transform="translate(-2.2737367544323206e-13 387.12962500000003) translate(579.9023712500001 56.071999999999996) scale(0.75) translate(-601.598 21.856)"></path>
        <path id="path488399" style="font-style:normal;font-weight:100;font-size:32px;line-height:1;font-family:'Exo 2';font-variant-ligatures:none;text-align:center;text-anchor:middle" d="m 609.904,-15.424 0.16,2.72 q 3.264,-3.104 6.4,-3.104 2.944,0 4.224,1.92 1.28,1.888 1.28,6.208 0,4.384 -1.312,6.24 -1.312,1.824 -4.352,1.824 -3.008,0 -6.24,-1.696 0.096,0.832 0.096,3.008 v 4.96 h -1.248 v -22.08 z m 0.256,3.68 v 9.568 q 3.776,1.408 5.984,1.408 2.464,0 3.488,-1.536 1.024,-1.536 1.024,-5.376 0,-3.808 -1.024,-5.376 -1.024,-1.6 -3.424,-1.6 -1.408,0 -2.784,0.672 -1.344,0.672 -3.264,2.24 z" stroke-width="0" stroke-linejoin="miter" stroke-miterlimit="2" fill="#55fd8b" stroke="#55fd8b" transform="translate(-2.2737367544323206e-13 387.12962500000003) translate(585.3878712500002 60.608) scale(0.75) translate(-608.912 15.808)"></path>
        <path id="path488401" style="font-style:normal;font-weight:100;font-size:32px;line-height:1;font-family:'Exo 2';font-variant-ligatures:none;text-align:center;text-anchor:middle" d="m 634.1895,-14.176 -0.128,-0.96 q 4.864,-0.672 7.36,-0.672 4.544,0 4.544,4.48 V 0 h -0.96 l -0.224,-2.848 q -1.184,1.152 -3.2,2.112 -1.984,0.96 -3.968,0.96 -1.984,0 -3.104,-1.024 -1.088,-1.056 -1.088,-2.976 v -1.92 q 0,-1.76 0.992,-2.72 1.024,-0.96 2.848,-0.96 h 7.424 v -1.952 q 0,-1.6 -0.768,-2.464 -0.768,-0.864 -2.656,-0.864 -2.752,0 -7.072,0.48 z m 0.544,8.576 v 1.728 q 0,2.88 3.008,2.912 1.6,0.032 3.584,-0.8 1.984,-0.864 3.36,-2.144 v -4.448 l -7.296,0.096 q -2.656,0.032 -2.656,2.656 z" stroke-width="0" stroke-linejoin="miter" stroke-miterlimit="2" fill="#55fd8b" stroke="#55fd8b" transform="translate(-2.2737367544323206e-13 387.12962500000003) translate(603.7699962500002 60.608) scale(0.75) translate(-633.4215 15.808)"></path>
        <path id="path488403" style="font-style:normal;font-weight:100;font-size:32px;line-height:1;font-family:'Exo 2';font-variant-ligatures:none;text-align:center;text-anchor:middle" d="m 652.686,-15.424 0.096,2.72 q 4,-3.104 7.36,-3.104 4.16,0 4.16,4.224 V 0 h -1.28 v -11.328 q 0,-1.728 -0.768,-2.528 -0.768,-0.8 -2.4,-0.8 -1.568,0 -3.104,0.704 -1.504,0.672 -3.84,2.24 V 0 h -1.248 v -15.424 z" stroke-width="0" stroke-linejoin="miter" stroke-miterlimit="2" fill="#55fd8b" stroke="#55fd8b" transform="translate(-2.2737367544323206e-13 387.12962500000003) translate(617.4503712500002 60.608) scale(0.75) translate(-651.662 15.808)"></path>
        <path id="path488405" style="font-style:normal;font-weight:100;font-size:32px;line-height:1;font-family:'Exo 2';font-variant-ligatures:none;text-align:center;text-anchor:middle" d="M 682.1985,-22.4 V 0 h -0.96 l -0.16,-2.56 q -3.36,2.944 -6.336,2.944 -2.976,0 -4.256,-1.888 -1.28,-1.888 -1.28,-6.208 0,-4.384 1.312,-6.24 1.312,-1.856 4.352,-1.856 2.848,0 6.176,1.568 -0.096,-0.8 -0.096,-3.008 V -22.4 Z m -1.248,18.816 v -9.696 q -3.648,-1.376 -5.92,-1.376 -2.464,0 -3.488,1.536 -1.024,1.536 -1.024,5.376 0,3.84 1.024,5.408 1.024,1.568 3.456,1.568 1.376,0 2.688,-0.64 1.344,-0.64 3.264,-2.176 z" stroke-width="0" stroke-linejoin="miter" stroke-miterlimit="2" fill="#55fd8b" stroke="#55fd8b" transform="translate(-2.2737367544323206e-13 387.12962500000003) translate(630.6087462500002 55.664) scale(0.75) translate(-669.2065 22.4)"></path>
        <path id="path488407" style="font-style:normal;font-weight:100;font-size:32px;line-height:1;font-family:'Exo 2';font-variant-ligatures:none;text-align:center;text-anchor:middle" d="m 696.5335,-22.4 v 6.656 q 0,2.08 -0.16,3.104 3.424,-3.168 6.336,-3.168 2.976,0 4.256,1.856 1.312,1.856 1.312,6.24 0,4.32 -1.472,6.208 -1.44,1.888 -4.896,1.888 -3.136,0 -6.656,-1.024 V -22.4 Z m 0,10.72 v 10.176 q 2.72,0.8 5.344,0.736 2.752,0 3.904,-1.568 1.184,-1.568 1.184,-5.376 0,-3.808 -1.024,-5.376 -0.992,-1.568 -3.488,-1.568 -1.344,0 -2.656,0.704 -1.312,0.704 -3.264,2.272 z" stroke-width="0" stroke-linejoin="miter" stroke-miterlimit="2" fill="#55fd8b" stroke="#55fd8b" transform="translate(-2.2737367544323206e-13 387.12962500000003) translate(650.1439962500003 55.664) scale(0.75) translate(-695.2535 22.4)"></path>
        <path id="path488409" style="font-style:normal;font-weight:100;font-size:32px;line-height:1;font-family:'Exo 2';font-variant-ligatures:none;text-align:center;text-anchor:middle" d="m 713.127,-14.176 -0.128,-0.96 q 4.864,-0.672 7.36,-0.672 4.544,0 4.544,4.48 V 0 h -0.96 l -0.224,-2.848 q -1.184,1.152 -3.2,2.112 -1.984,0.96 -3.968,0.96 -1.984,0 -3.104,-1.024 -1.088,-1.056 -1.088,-2.976 v -1.92 q 0,-1.76 0.992,-2.72 1.024,-0.96 2.848,-0.96 h 7.424 v -1.952 q 0,-1.6 -0.768,-2.464 -0.768,-0.864 -2.656,-0.864 -2.752,0 -7.072,0.48 z m 0.544,8.576 v 1.728 q 0,2.88 3.008,2.912 1.6,0.032 3.584,-0.8 1.984,-0.864 3.36,-2.144 v -4.448 l -7.296,0.096 q -2.656,0.032 -2.656,2.656 z" stroke-width="0" stroke-linejoin="miter" stroke-miterlimit="2" fill="#55fd8b" stroke="#55fd8b" transform="translate(-2.2737367544323206e-13 387.12962500000003) translate(662.9731212500003 60.608) scale(0.75) translate(-712.359 15.808)"></path>
        <path id="path488411" style="font-style:normal;font-weight:100;font-size:32px;line-height:1;font-family:'Exo 2';font-variant-ligatures:none;text-align:center;text-anchor:middle" d="m 737.9595,-6.88 -5.024,-0.736 q -1.728,-0.256 -2.56,-1.184 -0.8,-0.96 -0.8,-2.88 0,-2.688 1.28,-3.424 1.28,-0.768 4.48,-0.704 3.456,0.064 6.112,0.416 l -0.128,0.928 q -3.68,-0.192 -5.856,-0.224 -2.752,-0.064 -3.712,0.448 -0.928,0.48 -0.928,2.56 0,1.504 0.608,2.144 0.608,0.64 1.888,0.832 l 5.024,0.736 q 1.76,0.288 2.624,1.248 0.896,0.928 0.896,2.752 0,2.72 -1.408,3.52 -1.408,0.8 -4.8,0.8 -3.072,0 -5.728,-0.384 l 0.128,-0.928 q 2.752,0.224 5.472,0.192 2.976,-0.032 4.032,-0.608 1.056,-0.608 1.056,-2.592 0,-1.408 -0.704,-2.048 -0.672,-0.64 -1.952,-0.864 z" stroke-width="0" stroke-linejoin="miter" stroke-miterlimit="2" fill="#55fd8b" stroke="#55fd8b" transform="translate(-2.2737367544323206e-13 387.12962500000003) translate(675.8854962500003 60.60430775) scale(0.75) translate(-729.5755 15.812923)"></path>
        <path id="path488413" style="font-style:normal;font-weight:100;font-size:32px;line-height:1;font-family:'Exo 2';font-variant-ligatures:none;text-align:center;text-anchor:middle" d="m 755.398,-7.072 h -8.224 q 0.128,3.52 1.472,4.928 1.344,1.376 4.352,1.376 2.656,0 5.28,-0.384 l 0.16,0.896 q -1.92,0.64 -5.6,0.64 -3.744,0 -5.376,-1.856 -1.632,-1.888 -1.632,-6.304 0,-4.416 1.536,-6.208 1.568,-1.824 5.216,-1.824 6.112,0 6.208,4.544 0.064,2.112 -0.768,3.168 -0.8,1.024 -2.624,1.024 z m -8.224,-1.056 h 8.032 q 2.368,0 2.272,-3.072 -0.032,-1.792 -1.216,-2.624 -1.152,-0.832 -3.616,-0.832 -3.008,0 -4.224,1.44 -1.216,1.44 -1.248,5.088 z" stroke-width="0" stroke-linejoin="miter" stroke-miterlimit="2" fill="#55fd8b" stroke="#55fd8b" transform="translate(-2.2737367544323206e-13 387.12962500000003) translate(688.0763712500003 60.608) scale(0.75) translate(-745.83 15.808)"></path>
        <path id="path488415" style="font-style:normal;font-weight:100;font-size:32px;line-height:1;font-family:'Exo 2';font-variant-ligatures:none;text-align:center;text-anchor:middle" d="M 775.8235,-22.4 V 0 h -0.96 l -0.16,-2.56 q -3.36,2.944 -6.336,2.944 -2.976,0 -4.256,-1.888 -1.28,-1.888 -1.28,-6.208 0,-4.384 1.312,-6.24 1.312,-1.856 4.352,-1.856 2.848,0 6.176,1.568 -0.096,-0.8 -0.096,-3.008 V -22.4 Z m -1.248,18.816 v -9.696 q -3.648,-1.376 -5.92,-1.376 -2.464,0 -3.488,1.536 -1.024,1.536 -1.024,5.376 0,3.84 1.024,5.408 1.024,1.568 3.456,1.568 1.376,0 2.688,-0.64 1.344,-0.64 3.264,-2.176 z" stroke-width="0" stroke-linejoin="miter" stroke-miterlimit="2" fill="#55fd8b" stroke="#55fd8b" transform="translate(-2.2737367544323206e-13 387.12962500000003) translate(700.8274962500003 55.664) scale(0.75) translate(-762.8315 22.4)"></path>
        <path id="path488417" style="font-style:normal;font-weight:100;font-size:32px;line-height:1;font-family:'Exo 2';font-variant-ligatures:none;text-align:center;text-anchor:middle" d="m 789.7105,-13.984 q 1.568,-1.824 5.344,-1.824 3.776,0 5.312,1.824 1.568,1.824 1.568,6.272 0,4.448 -1.536,6.272 -1.536,1.824 -5.344,1.824 -3.808,0 -5.344,-1.824 -1.536,-1.824 -1.536,-6.272 0,-4.448 1.536,-6.272 z m 9.664,0.832 q -1.216,-1.504 -4.32,-1.504 -3.104,0 -4.32,1.504 -1.216,1.504 -1.216,5.44 0,3.936 1.216,5.472 1.216,1.504 4.32,1.504 3.104,0 4.32,-1.504 1.248,-1.536 1.248,-5.472 0,-3.936 -1.248,-5.44 z" stroke-width="0" stroke-linejoin="miter" stroke-miterlimit="2" fill="#55fd8b" stroke="#55fd8b" transform="translate(-2.2737367544323206e-13 387.12962500000003) translate(719.8347462500003 60.608) scale(0.75) translate(-788.1745 15.808)"></path>
        <path id="path488419" style="font-style:normal;font-weight:100;font-size:32px;line-height:1;font-family:'Exo 2';font-variant-ligatures:none;text-align:center;text-anchor:middle" d="m 807.9985,-15.424 0.096,2.72 q 4,-3.104 7.36,-3.104 4.16,0 4.16,4.224 V 0 h -1.28 v -11.328 q 0,-1.728 -0.768,-2.528 -0.768,-0.8 -2.4,-0.8 -1.568,0 -3.104,0.704 -1.504,0.672 -3.84,2.24 V 0 h -1.248 v -15.424 z" stroke-width="0" stroke-linejoin="miter" stroke-miterlimit="2" fill="#55fd8b" stroke="#55fd8b" transform="translate(-2.2737367544323206e-13 387.12962500000003) translate(733.9347462500004 60.608) scale(0.75) translate(-806.9745 15.808)"></path>
        <path id="path488421" style="font-style:normal;font-weight:100;font-size:32px;line-height:1;font-family:'Exo 2';font-variant-ligatures:none;text-align:center;text-anchor:middle" d="m 854.056,-15.424 -5.12,15.008 Q 848.776,0 848.36,0 h -1.248 q -0.448,0 -0.608,-0.448 l -3.616,-11.68 q -0.448,-1.536 -0.672,-2.336 h -0.352 l -0.704,2.336 -3.584,11.68 Q 837.416,0 836.968,0 h -1.248 q -0.416,0 -0.576,-0.416 l -5.12,-15.008 h 1.344 l 4.096,12.32 q 0.16,0.416 0.384,1.216 0.256,0.8 0.288,0.928 h 0.416 l 0.672,-2.176 3.648,-11.84 q 0.096,-0.448 0.576,-0.448 h 1.184 q 0.448,0 0.576,0.448 l 3.68,11.84 0.64,2.176 h 0.416 q 0.128,-0.352 0.32,-1.088 0.224,-0.736 0.352,-1.088 l 4.096,-12.288 z" stroke-width="0" stroke-linejoin="miter" stroke-miterlimit="2" fill="#55fd8b" stroke="#55fd8b" transform="translate(-2.2737367544323206e-13 387.12962500000003) translate(751.2218712500005 60.896) scale(0.75) translate(-830.024 15.424)"></path>
        <path id="path488423" style="font-style:normal;font-weight:100;font-size:32px;line-height:1;font-family:'Exo 2';font-variant-ligatures:none;text-align:center;text-anchor:middle" d="m 866.648,-7.072 h -8.224 q 0.128,3.52 1.472,4.928 1.344,1.376 4.352,1.376 2.656,0 5.28,-0.384 l 0.16,0.896 q -1.92,0.64 -5.6,0.64 -3.744,0 -5.376,-1.856 -1.632,-1.888 -1.632,-6.304 0,-4.416 1.536,-6.208 1.568,-1.824 5.216,-1.824 6.112,0 6.208,4.544 0.064,2.112 -0.768,3.168 -0.8,1.024 -2.624,1.024 z m -8.224,-1.056 h 8.032 q 2.368,0 2.272,-3.072 -0.032,-1.792 -1.216,-2.624 -1.152,-0.832 -3.616,-0.832 -3.008,0 -4.224,1.44 -1.216,1.44 -1.248,5.088 z" stroke-width="0" stroke-linejoin="miter" stroke-miterlimit="2" fill="#55fd8b" stroke="#55fd8b" transform="translate(-2.2737367544323206e-13 387.12962500000003) translate(771.5138712500005 60.608) scale(0.75) translate(-857.08 15.808)"></path>
        <path id="path488425" style="font-style:normal;font-weight:100;font-size:32px;line-height:1;font-family:'Exo 2';font-variant-ligatures:none;text-align:center;text-anchor:middle" d="m 876.0335,-22.4 v 6.656 q 0,2.08 -0.16,3.104 3.424,-3.168 6.336,-3.168 2.976,0 4.256,1.856 1.312,1.856 1.312,6.24 0,4.32 -1.472,6.208 -1.44,1.888 -4.896,1.888 -3.136,0 -6.656,-1.024 V -22.4 Z m 0,10.72 v 10.176 q 2.72,0.8 5.344,0.736 2.752,0 3.904,-1.568 1.184,-1.568 1.184,-5.376 0,-3.808 -1.024,-5.376 -0.992,-1.568 -3.488,-1.568 -1.344,0 -2.656,0.704 -1.312,0.704 -3.264,2.272 z" stroke-width="0" stroke-linejoin="miter" stroke-miterlimit="2" fill="#55fd8b" stroke="#55fd8b" transform="translate(-2.2737367544323206e-13 387.12962500000003) translate(784.7689962500006 55.664) scale(0.75) translate(-874.7535 22.4)"></path>
        <path id="path488427" style="font-style:normal;font-weight:100;font-size:32px;line-height:1;font-family:'Exo 2';font-variant-ligatures:none;text-align:center;text-anchor:middle" d="m 892.307,-20.928 -0.224,-0.992 q 3.168,-0.544 5.792,-0.544 3.68,0 5.152,1.12 1.504,1.088 1.504,3.968 0,4.864 -3.424,5.568 v 0.128 q 3.936,0.64 4.032,5.536 0.064,3.36 -1.504,4.96 -1.536,1.568 -5.216,1.568 -2.656,0 -6.656,-0.544 l 0.192,-1.024 q 3.84,0.384 6.24,0.384 3.008,0 4.32,-1.216 1.312,-1.248 1.312,-4.192 0,-1.056 -0.224,-1.856 -0.192,-0.832 -0.736,-1.536 -0.544,-0.736 -1.632,-1.12 -1.056,-0.416 -2.624,-0.448 h -4.096 v -0.992 l 4.096,-0.064 q 1.504,-0.032 2.496,-0.48 0.992,-0.48 1.408,-1.28 0.448,-0.8 0.576,-1.504 0.16,-0.736 0.16,-1.696 -0.064,-2.432 -1.216,-3.264 -1.152,-0.832 -4.256,-0.832 -2.848,0 -5.472,0.352 z" stroke-width="0" stroke-linejoin="miter" stroke-miterlimit="2" fill="#55fd8b" stroke="#55fd8b" transform="translate(-2.2737367544323206e-13 387.12962500000003) translate(797.5261212500006 55.616) scale(0.75) translate(-891.763 22.464)"></path>
      </g>
      <g id="title" style="font-style:normal;font-weight:400;font-size:72px;line-height:1;font-family:Edo;font-variant-ligatures:none;text-align:center;text-anchor:middle" transform="translate(0 0)">
        <path id="path488430" style="font-style:normal;font-weight:400;font-size:72px;line-height:1;font-family:Edo;font-variant-ligatures:none;text-align:center;text-anchor:middle" d="m 416.79687,-46.089844 3.6211,0.597657 11.98828,-0.597657 14.97656,4.394532 v 1.265625 l 0.59766,0.632812 -0.59766,0.632813 h -0.59765 v 0.632812 h 1.19531 l 1.19531,-1.265625 h 0.59766 v 2.496094 l -23.37891,28.3710935 h 3.58594 l 3.62109,-0.6679688 q 7.41797,1.9335938 9.5625,5.6953125 h 0.63281 V -1.40625 l -1.23046,1.30078125 h -0.59766 l -2.98828,-1.30078125 0.59765,0.66796875 v 1.1953125 l -4.78125,-1.1953125 h -1.79296 q -5.80079,0 -15.60938,3.76171875 l -3.58594,-3.12890625 1.79297,-5.06249995 -1.19531,-1.265625 v -2.4960938 q 4.42969,-7.5585935 5.41406,-7.5585935 l 0.59766,0.632812 0.59765,-0.632812 v -0.632813 h -0.59765 q 0,-1.898437 2.39062,-1.898437 l 2.39063,-3.164063 -0.59766,-0.597656 1.79297,-1.265625 0.59766,0.632813 q 5.34375,-8.402344 7.20703,-8.824219 v 0.632812 l -6.60938,8.824219 h 0.59766 l 10.19531,-12.621094 h -0.59765 l -2.39063,1.898438 -0.59766,-0.632813 v -0.632812 l 0.59766,-0.632813 -6.01172,0.632813 h -7.17187 q -2.84766,-1.40625 -4.21875,-4.394531 v -0.632813 l 1.19531,-1.898437 q -0.98438,-3.164063 -2.98828,-3.164063 l 0.59765,-0.632812 z m 15.60938,23.90625 -3.62109,4.394532 h 0.59765 l 3.6211,-4.394532 z m -7.20703,1.898438 -2.98828,3.796875 h 0.59765 l 2.98828,-3.796875 z m 2.98828,3.164062 -2.98828,3.761719 h 0.59765 l 2.98829,-3.761719 z" stroke-width="0" stroke-linejoin="miter" stroke-miterlimit="2" fill="#55fd8b" stroke="#55fd8b" transform="translate(0 302.984687) translate(276.8125 7.3906240000000025) scale(2) translate(-413.80859 46.089844)"></path>
        <path id="path488432" style="font-style:normal;font-weight:400;font-size:72px;line-height:1;font-family:Edo;font-variant-ligatures:none;text-align:center;text-anchor:middle" d="m 455.39844,-47.179687 h 0.59765 v 1.792968 h 0.59766 v -1.195312 h 2.39062 q 1.19532,0 1.19532,3.585937 l 1.79297,0.597657 q 0,-1.792969 1.19531,-1.792969 l 0.59765,0.597656 v 0.597656 l -2.98828,16.136719 8.96485,-0.597656 h 5.97656 l 0.59766,-2.988281 -0.59766,-0.597657 h 1.19531 l -0.59765,-4.183593 v -0.597657 h 1.19531 l -0.59766,-0.597656 v -1.195312 h 1.19531 V -38.8125 h -1.19531 v -0.597656 h 1.19531 l -0.59765,-0.597656 v -4.183594 l 0.59765,0.597656 h 0.59766 v -2.390625 l -0.59766,-0.597656 v -0.597656 h 1.79297 l -2.98828,20.320312 q 1.19531,0 3.58594,-19.722656 l 2.39062,-0.597656 q 0.59766,4.78125 1.79297,4.78125 h 0.59766 q 0,-1.792969 1.19531,-1.792969 h 0.59766 q -2.98828,20.671875 -8.96485,48.410156 h -0.59765 l -0.59766,-0.5976562 0.59766,-0.5976563 v -4.78125 h -0.59766 L 475.12109,4.21875 h -1.79297 q -1.19531,0 -1.19531,-3.5859375 h -0.59765 v 2.390625 h -0.59766 q -1.19531,0 -1.19531,-1.7929688 0,-4.3242187 3.58593,-20.3203127 h -0.59765 l -7.76953,0.597657 -5.37891,-0.597657 q -1.79297,14.3437503 -3.58594,19.12500025 h -1.79297 q -1.19531,0 -1.19531,-4.78124995 h -0.59765 L 451.8125,-0.5625 450.61719,-1.7578125 v -1.7929688 l 0.59765,-0.5976562 V -4.7460937 L 450.61719,-5.34375 h -0.59766 l -0.59766,0.5976563 h -0.59765 l -0.59766,-2.390625 q 2.39063,-20.1796873 5.37891,-29.2851563 h 0.59765 l -0.59765,-0.597656 V -38.8125 l 1.79297,-6.574219 h -0.59766 z m 0.59765,2.390625 v 4.183593 h 0.59766 v -4.183593 z m -0.59765,4.78125 -0.59766,4.78125 v 1.195312 h 0.59766 l 0.59765,-4.78125 v -1.195312 z m -1.19532,6.574218 v 2.390625 h 0.59766 v -2.390625 z m -0.59765,2.988282 -0.59766,2.988281 v 0.597656 h 0.59766 L 454.20312,-29.25 v -1.195312 z m -1.19531,5.976562 v 2.390625 h 0.59765 v -2.390625 z m 22.71093,5.976563 -0.59765,3.585937 v 0.597656 h 0.59765 l 0.59766,-2.988281 v -1.195312 z m -1.19531,4.781249 v 2.390625 h 0.59766 v -2.390625 z m 4.18359,6.5742193 -0.59765,2.9882812 v 1.7929687 h 0.59765 l 0.59766,-4.1835937 v -0.5976562 z m -29.28515,2.9882812 h 0.59765 v 2.9882813 h -0.59765 z" stroke-width="0" stroke-linejoin="miter" stroke-miterlimit="2" fill="#7cef81" stroke="#7cef81" transform="translate(0 302.984687) translate(365.64844000000005 5.210937999999999) scale(2) translate(-448.22656 47.179687)"></path>
        <path id="path488434" style="font-style:normal;font-weight:400;font-size:72px;line-height:1;font-family:Edo;font-variant-ligatures:none;text-align:center;text-anchor:middle" d="m 513.82812,-47.003906 q 7.03125,0 13.14844,4.183594 l -0.59765,0.597656 V -41.625 l 2.39062,3.585938 h -1.19531 l -0.59766,-0.597657 h -0.59765 l 1.79296,13.148438 h 0.59766 q 0,-2.988281 1.19531,-2.988281 v 2.390625 q 0,3.375 -5.97656,15.539062 h 0.59766 q -4.21875,5.8007813 -12.55078,10.7578125 l -2.98829,0.59765625 h -0.59765 q -14.20313,0 -17.92969,-11.35546875 l -2.39062,-3.585938 0.59765,-0.597656 -0.59765,-4.183593 v -1.195313 q 0,-4.957031 9.5625,-17.332031 v 0.597656 q -4.39454,5.90625 -7.17188,13.148438 v 0.597656 h 0.59766 q 2.17968,-8.753906 16.13672,-22.113281 l -4.1836,2.390625 h -0.59765 q 0,-2.742188 11.35546,-4.183594 z m -2.98828,10.160156 -0.59765,-0.597656 v 0.597656 l 0.59765,0.597656 -4.18359,3.585938 q -4.95703,0 -9.5625,16.734375 0,4.78125 5.37891,8.3671873 h 0.59765 q 6.53906,0 14.94141,-13.7460933 Q 521,-27.84375 521,-30.867187 v -4.78125 q 0,-1.652344 -5.97656,-2.390625 h -0.59766 l -0.59766,0.597656 h -0.59765 v -0.597656 z m 17.33203,1.792969 h 1.19532 v 2.988281 h -1.19532 z m -30.48046,6.574219 -1.79297,3.585937 h 0.59765 l 1.79297,-3.585937 z M 521,-24.890625 l -2.39063,5.976563 h 1.79297 l 1.79297,-4.183594 -0.59765,-1.792969 z m 4.18359,2.390625 -0.59765,1.792969 v 1.195312 h 0.59765 l 0.59766,-2.390625 V -22.5 Z m -35.26172,2.390625 v 4.78125 h 0.59766 v -4.78125 z m 28.08985,1.792969 -2.39063,2.988281 h 0.59766 l 2.39062,-2.988281 z m -19.125,13.1484373 v 0.5976562 l 2.98828,1.7929687 V -3.375 Z" stroke-width="0" stroke-linejoin="miter" stroke-miterlimit="2" fill="#a3e176" stroke="#a3e176" transform="translate(0 302.984687) translate(465.45314 5.5625) scale(2) translate(-488.12891 47.003906)"></path>
        <path id="path488436" style="font-style:normal;font-weight:400;font-size:72px;line-height:1;font-family:Edo;font-variant-ligatures:none;text-align:center;text-anchor:middle" d="m 540.26562,-47.179687 q 1.19532,0 1.19532,3.585937 h 1.19531 l 1.79297,-1.195312 0.59765,0.597656 -2.98828,33.46875 q 3.79688,-1.792969 20.32032,-4.183594 h 0.59765 v 0.597656 q -20.91797,3.410156 -20.91797,5.3789065 l 6.57422,-1.7929685 V -10.125 l 11.35547,-2.390625 v 0.597656 l 0.59766,-0.597656 h 0.59765 l 0.59766,0.597656 2.98828,-0.597656 h 2.39063 l 4.18359,0.597656 v 0.597656 q 0,1.7929692 -8.96484,2.9882817 v 0.5976563 l 0.59765,-0.5976563 h 0.59766 l 4.18359,0.5976563 0.59766,-0.5976563 v 1.7929688 l -19.72266,4.78125 -12.55078,4.78125 h -1.79297 l -2.39062,-2.98828125 h -0.59766 V -0.5625 q 0,-1.5117188 2.39063,-1.7929688 v -1.7929687 l -1.79297,-2.390625 2.39062,-26.8945315 h 0.59766 v 2.390625 l -0.59766,4.183594 h 1.19531 l -1.19531,7.769531 0.59766,0.597657 -0.59766,2.390625 v 2.988281 h 0.59766 l 2.39062,-31.675781 q 1.19532,0 1.19532,-1.792969 l 0.59765,-0.597656 z" stroke-width="0" stroke-linejoin="miter" stroke-miterlimit="2" fill="#c9d36c" stroke="#c9d36c" transform="translate(0 302.984687) translate(571.7968800000001 5.210937999999999) scale(2) translate(-531.30078 47.179687)"></path>
        <path id="path488438" style="font-style:normal;font-weight:400;font-size:72px;line-height:1;font-family:Edo;font-variant-ligatures:none;text-align:center;text-anchor:middle" d="m 592.26172,-49.570312 q 0.38672,1.792968 4.78125,1.792968 l 4.78125,20.917969 h 4.18359 v 0.597656 l -3.58594,0.597657 v 0.597656 q 1.79297,0 1.79297,1.195312 h 4.78125 v 0.597657 q 0,1.335937 -5.97656,2.390625 l 1.19531,3.585937 -0.59765,1.792969 0.59765,3.585937 -0.59765,0.597656 h 0.59765 l -0.59765,0.597657 0.59765,7.1718747 V 0.03515625 L 603.61719,-0.5625 h -0.59766 l 1.79297,8.9648438 h -1.19531 q 0,-1.7929688 -1.19532,-1.7929688 V 7.2070312 L 603.01953,9 h -0.59766 l -0.59765,-0.5976562 h -0.59766 q 0,1.7929692 -1.19531,1.7929692 L 597.04297,0.03515625 h -0.59766 V 2.4257813 h -0.59765 l -1.19532,-7.171875 1.79297,1.1953124 v -0.5976562 q -0.49219,-5.3789063 -1.79297,-5.3789063 L 595.25,-10.125 v -1.792969 h -1.19531 V -10.125 h -0.59766 v -2.390625 l 0.59766,-0.597656 h -0.59766 l -0.59766,0.597656 v -2.390625 h 0.59766 l 0.59766,0.597656 h 0.59765 l -0.59765,-0.597656 v -3.585937 l -13.14844,2.988281 v 1.195312 l 4.18359,-1.195312 2.39063,0.597656 2.98828,-0.597656 v 1.195312 q -12.55078,2.25 -12.55078,5.9765627 -1.58203,6.5742188 -3.58594,8.36718755 V 1.2304687 h -1.79297 l -0.59765,-0.5976562 h -0.59766 v 0.5976562 l -1.79297,-1.19531245 1.19531,-3.58593755 h -0.59765 q -1.79297,0 -1.79297,4.78125 L 567.16016,0.03515625 567.75781,-3.5507813 565.96484,-5.34375 576.125,-29.847656 h 0.59766 q 0,1.792969 1.19531,1.792969 l 0.59765,-2.988282 -0.59765,0.597657 h -0.59766 v -2.390625 l 0.59766,-2.988282 0.59765,0.597657 h 0.59766 l -0.59766,-0.597657 v -0.597656 l 1.19532,-2.390625 h 0.59765 l 0.59766,0.597656 h 0.59766 V -38.8125 q 0,-1.195312 -1.79297,-1.195312 l 2.98828,-8.367188 h 2.39062 l -0.59765,0.597656 v 0.597657 q 4.14843,-2.390625 7.76953,-2.390625 z m -3.58594,13.746093 -4.78125,12.550782 h 1.19531 q 5.97657,0 6.57422,-3.585938 l -2.39062,-8.964844 z m -5.37891,3.585938 -1.19531,4.183594 -0.59765,-0.597657 h -0.59766 l 0.59766,2.390625 h 0.59765 l 1.79297,-5.378906 v -0.597656 z m -6.57421,5.378906 -0.59766,0.597656 v 1.195313 h 0.59766 l 0.59765,-1.792969 z m 3.58593,2.390625 -0.59765,2.390625 h 0.59765 l 0.59766,-0.597656 v -1.792969 z m -5.3789,0.597656 -0.59766,2.390625 h 0.59766 l 1.19531,-2.390625 z m 10.16015,1.792969 v 0.597656 h 1.19532 q 5.3789,-0.597656 5.3789,-1.792968 h -0.59765 z m 8.36719,13.1484375 h 1.19531 V -5.34375 h -0.59765 z m 8.36719,4.1835938 v 1.1953124 l 0.59765,2.3906251 h 0.59766 v -1.1953126 l -0.59766,-2.3906249 z m -5.97656,1.7929687 v 1.1953125 l 1.79296,-0.5976563 v -1.1953125 z" stroke-width="0" stroke-linejoin="miter" stroke-miterlimit="2" fill="#f0c561" stroke="#f0c561" transform="translate(0 302.984687) translate(661.125 0.42968799999999874) scale(2) translate(-565.96484 49.570312)"></path>
      </g>
      <image xlink:href="" id="icon" x="0" y="0" style="display: none;"></image>
    </g>
  </g>
</svg>